<?xml version="1.0" encoding="UTF-8"?>
<svg id="Capa_2" xmlns="http://www.w3.org/2000/svg" viewBox="0 0 158.63 205.14">
  <defs>
    <style>
      .cls-1 {
        fill: #289b9e;
      }

      .cls-2 {
        fill: #fff;
      }

      .cls-3 {
        fill: #222c37;
      }
    </style>
  </defs>
  <g id="Capa_1-2" data-name="Capa_1">
    <path class="cls-1" d="M76.85,63.6c.12-4.62.19-9.24.4-13.85.06-1.27-.2-1.71-1.52-1.74-2.83-.06-4.97-1.48-6.53-3.79-1.1-1.63-1.98-3.36-2.34-5.32-.65-3.52-2.94-4.85-6.38-3.6-3.07,1.12-6.06,2.44-9.14,3.54-6.14,2.18-12.47,3.39-19,3.53-.69.01-1.56-.24-1.89.62-.31.81.2,1.5.74,2.07,2.86,3.03,6.58,4.34,10.55,4.89,3.99.55,7.79-.53,11.36-2.17,2.84-1.31,5.73-2.53,8.29-4.4.65-.48,1.56-1.56,2.43-.26,1.19,1.77,1.08,2.88-.35,3.8-4.17,2.67-8.53,4.95-13.41,6.04-.67.15-1.31.36-1.47,1.16-.18.91.45,1.33,1.1,1.65,3.31,1.62,6.68,1.94,10.09.33,3.17-1.49,6.16-3.28,8.86-5.54.6-.5,1.15-1.05,1.87-.02.59.85,1.52,1.54.28,2.53-1.96,1.56-3.91,3.12-6.18,4.22-.51.25-1.01.52-1.48.81-.53.33-.72.84-.65,1.46.07.65.57.79,1.07.95,1.74.53,3.49.87,5.31.37.44-.12.9-.22,1.47.06-.38.66-.98,1.05-1.6,1.31-2.45,1.04-4.46,2.65-6.32,4.53-1.37,1.38-2.86,2.65-4.33,3.93-.46.41-.99.72-1.65.75-6.99.31-13.98.41-20.96.06-5.84-.29-9.82-3.69-12.67-8.62-1.4-2.42-2.06-5.02-2.13-7.77-.08-3.55-.17-7.1-.02-10.64.42-9.86,7.76-17.82,17.76-17.9,9.25-.08,18.51-.05,27.77-.04,12.44.02,24.89.09,37.33.1,6.22,0,12.44-.08,18.66-.14,2.72-.03,5.19.77,7.38,2.31,3.82,2.69,6.76,6.02,8.06,10.69,1.87,6.74,1.85,13.57.11,20.19-1.69,6.42-6.37,10.39-12.94,11.87-.84.19-1.74.19-2.6.14-5.03-.3-10.07-.3-15.11-.27-2.45.02-4.48-.66-6.26-2.36-2.87-2.73-5.94-5.23-9.35-7.27-.34-.21-.72-.39-.87-1.08,1.82,0,3.6.09,5.32-.34.15-.04.32,0,.46-.04.7-.23,1.75-.07,1.89-.99.12-.75-.69-1.18-1.29-1.58-2.31-1.54-4.62-3.07-6.92-4.62-.87-.59-1.72-1.12-.79-2.44.69-.97,1.22-1.14,2.23-.52,3.88,2.42,7.92,4.56,12.03,6.58,1.89.93,6.08.21,7.44-1.34,1.11-1.27.89-2.08-.75-2.48-4.82-1.16-9.07-3.53-13.2-6.18-.86-.56-1.53-1.11-1.01-2.36.54-1.29,1.18-1.62,2.45-.97,3.38,1.74,6.81,3.38,10.37,4.74,2.6.99,5.28,1.95,8.07,1.76,3.9-.26,7.74-1,10.68-3.96.25-.25.5-.52.7-.82.52-.76,1.2-1.57.76-2.51-.45-.96-1.48-.57-2.23-.51-8.35.71-16.01-1.76-23.54-4.92-2.16-.9-4.24-2.04-6.71-2.04-1.71,0-2.72.72-3.2,2.3-.39,1.28-.73,2.57-1.14,3.84-1.26,3.83-4.48,6.43-8.37,6.63-1.19.06-1.05.75-.96,1.44.54,4.16-.2,8.32.02,12.47.01.24-.09.5-.14.74-.32-.69-.69-.85-1.57-.83-1.74.05-2.68,1.72-4.32,1.78ZM80,43.06c3.56.24,5.85-3.31,5.91-5.88.07-3.03-2.8-5.79-5.87-5.78-3.78.01-6.07,2.19-6.09,5.81-.02,3.25,2.66,5.83,6.06,5.85Z"/>
    <path class="cls-1" d="M71.79,172.67c-5.92-1.63-11.28-3.96-16.45-6.73-10.06-5.39-19.33-11.85-27.35-20.06-8.6-8.81-15.21-18.89-19.85-30.3-2.8-6.89-4.89-13.95-5.9-21.32-1.18-8.59-1.32-17.19-.12-25.8.18-1.31.8-1.5,2.01-1.65,1.7-.21,2.56.14,3.1,1.87,2.02,6.46,6.35,11.16,11.81,14.92,4.21,2.9,9.05,3.75,13.98,4.25,1.89.19,3.79.33,5.69.38,1.04.03,1.59.44,1.93,1.39,1.37,3.82,3.86,6.83,6.97,9.37,1.67,1.37,3.79,1.74,5.66,2.67.34.17.88.06.47.75-2.98,5.02-1.61,9.64,1.37,14.09,1.18,1.77,2.92,2.87,4.69,3.92.57.34,1,.54.38,1.21-3.5,3.81-1.95,13.01,2.18,16.69,1.77,1.58,2.91,2.61,1.4,5.35-1.78,3.22-.57,6.85.72,10.15,1.05,2.67,2.36,5.24,3.11,8.03.34,1.25,1.13,2.32,2.14,3.15,1.34,1.11,1.89,2.47,1.69,4.21-.12,1.06,0,2.14.37,3.44ZM41.93,114.83c0-.38-.05-.9.01-1.41.16-1.29-.37-1.81-1.64-1.62-.25.04-.51,0-.77,0q-3.44,0-3.58-3.33c0-.1,0-.21,0-.31.04-.74-.34-.99-1.04-.97-1.23.02-2.47,0-3.7,0-.34,0-.85-.02-.78.45.15,1.03.11,1.47.08,2.24-.1,2.89-2.54,2.31-1.93,2.38.26.03-.51-.06-.77-.08q-2.89-.25-2.9,2.58c0,.62,0,1.23-.03,1.85-.03.77.3,1.16,1.08,1.17,1.08.01,2.16.1,3.24.02,1.15-.09,1.52.32,1.53,1.47.02,3.21.07,3.21,3.18,3.41,1.97.13,2.32-.2,2.36-2.21.06-2.71.06-2.7,2.7-2.7,3.5,0,2.81.29,2.97-2.94Z"/>
    <path class="cls-1" d="M157.56,82.4c-.06,19.39-6.1,36.85-17.15,52.65-2.04,2.92-4.48,5.56-6.82,8.27-5.74,6.63-12.39,12.16-19.72,16.87-7.54,4.85-15.64,8.61-24.05,11.71-1.71.63-1.71.5-1.78-1.3-.09-2.21.76-3.87,1.89-5.76,2.58-4.29,4.88-8.82,5.99-13.75.69-3.04.52-6.15-.95-9.03-.49-.97-.25-1.51.66-2.14,4.25-2.95,7.07-10.41,4.97-15.55-.06-.14-.11-.29-.16-.43-.92-2.53-.83-2.43,1.14-4.21,4.9-4.43,7.19-9.79,5.4-16.45-.27-1-.22-1.61.97-1.93,5.88-1.57,9.19-5.91,11.59-11.1.57-1.24,1.21-1.83,2.57-1.94,2.86-.24,5.74-.2,8.55-1.01,4.93-1.41,9.62-3.28,13.47-6.79,3.77-3.43,6.29-7.7,7.94-12.49.3-.88.5-1.73,1.71-1.38,1.1.32,2.56-.21,2.84,1.79.65,4.65.92,9.3.94,13.99ZM135.72,115.63q-.08-3.17-2.92-3.16c-3.35,0-3.38,0-3.48-3.33-.03-1.09-.26-1.76-1.56-1.52-1.2.22-2.76-.63-3.54.23-.77.85-.11,2.35.06,3.56.13.93-.16,1.34-1.14,1.3-1.23-.06-2.46-.04-3.69-.03-.82,0-1.12.41-1.16,1.25-.19,4.38-.22,4.38,4.2,4.39.1,0,.21,0,.31,0,1.06-.14,1.28.39,1.26,1.36-.08,3.29-.05,3.29,3.24,3.49,2.04.12,2.01.12,2.05-1.93.06-3.52-.66-3.71,3.46-2.67,1,.25,2-.06,2.81-.45.59-.28.12-1.32.15-2.02,0-.15-.02-.31-.04-.46Z"/>
    <path class="cls-3" d="M84.42,16.18c8.63,0,22.06.42,35.46-.11,17.09-.68,28.43,13.61,28.49,27.66.02,4.99.52,10.03-.24,14.95-1.86,12.02-9.78,22.85-24.3,23.01-6.01.07-12.04-.2-18.04.04-4.27.17-7.84-.97-11.02-3.78-2.72-2.41-5.56-4.68-8.37-6.98-1.06-.87-1.58-1.78-1.04-3.2.47-1.23.13-3.18,1.15-3.68,1.02-.5,2.25,1.02,3.4,1.61,3.29,1.67,6.02,4.1,8.72,6.55,2.3,2.09,4.8,3.33,8.06,3.08,4.97-.39,9.99-.29,14.95.07,9.79.7,16.73-6.48,19.29-13.47.77-2.1,1.18-4.24,1.23-6.48.09-4.17.1-8.33-.14-12.49-.51-9.11-7.4-17.96-15.54-20.09-1.66-.43-3.34-.55-5.04-.57-26.84-.3-53.68-.04-80.52-.02-3.39,0-6.81.03-10.02,1.37-8.49,3.55-12.89,10.25-13.71,19.11-.57,6.16-.89,12.41.67,18.56.5,1.97,1.58,3.57,2.64,5.17,3.77,5.7,9.03,8.86,15.96,8.92,6.63.06,13.26-.27,19.89.07,1.99.1,3.56-1.21,5.06-2.39,2.34-1.84,4.65-3.72,6.93-5.63,1.27-1.07,2.71-1.85,4.09-2.75.73-.47,1.14-.35,1.57.43,1.58,2.84,1.24,5.44-1.25,7.43-2.93,2.34-5.92,4.6-8.96,6.8-2.25,1.64-4.75,2.39-7.63,2.39-7.3,0-14.61.15-21.9-.22-14.24-.73-23.21-13.41-23.32-24.13-.06-6.22-.61-12.47.31-18.64,1.67-11.19,12.83-22.73,25.81-22.64,14.19.09,28.38-.3,47.36.04Z"/>
    <path class="cls-1" d="M79.96,205.14c-11.29.05-23.92-.27-36.51-1.61-5.02-.53-10.03-1.22-14.87-2.78-1.18-.38-2.36-.76-3.38-1.48-1.17-.82-1.19-1.72-.06-2.61,1.07-.84,2.36-1.25,3.65-1.58,4.68-1.22,9.46-1.99,14.26-2.48,15.91-1.6,31.87-2.43,47.87-1.92,12.38.39,24.73,1.24,36.92,3.64,2.02.4,4.02.87,5.89,1.78,1.84.9,1.96,2.17.27,3.34-2.3,1.59-5.02,2.12-7.69,2.59-8.96,1.58-17.99,2.52-27.1,2.85-5.96.22-11.92.27-19.25.26Z"/>
    <path class="cls-3" d="M94.44,98.31c1.89.7,3.64,1.6,5.06,3.08,2.49,2.6,3.03,6.3,1.48,9.53-2.07,4.3-5.5,6.61-10.18,7.17-.13,0-.26,0-.4,0-.55-.1-1.11-.2-1.66-.3-.93-.79-1.88-1.56-2.96-2.15-.48-.26-1.11-.45-.83-1.23,1.78-.65,3.57-1.28,5.33-1.97,1.83-.71,3.6-1.55,4.63-3.38.9-1.61.77-2.57-.54-3.86-2.05-2.01-4.78-2.48-7.4-3.18-6.44-1.74-12.62-.34-18.74,1.63-1.07.34-2.05.94-2.88,1.74-1.54,1.5-1.55,2.92.07,4.34,1.93,1.7,4.24,2.68,6.69,3.37,1.39.39,2.7.96,3.98,1.66-2.93,3.11-8.07,4.04-11.71,2.07-3.08-1.67-5.53-3.91-6.27-7.56-.67-3.29,1.54-8.12,4.56-9.55,3.85-1.83,7.82-3.35,12.02-4.22,3.39-.7,6.75-.24,10.12.1,1.88.19,3.74.6,5.6.91,1.34.59,2.68,1.19,4.03,1.78Z"/>
    <path class="cls-3" d="M80.99,136.6c3.31,1.38,6.61,2.82,8.48,6.26,1.5,2.76,1.63,5.59.17,8.39-1.2,2.3-2.23,4.81-5.15,5.55-.17.04-.34.24-.44.41-1.25,2.02-3,1.58-4.86,1.1-3.01-.78-5.94-1.57-7.93-4.29-3.86-5.28-2.83-11.95,2.43-15.21.35-.22.68-.46,1.01-.7,1.55-.61,3.17-1.2,4.72-1.81.63-.21.92-.05,1.34.22M85.1,147.29c.1-.85-.27-1.52-.77-2.13-1-1.22-2.24-2.07-3.78-2.52-2.07-.61-3.28-.24-4.82,1.61-1.31,1.57-1.88,3.29-.92,5.25,1.05,2.13,3.1,3.05,5.04,4.1.36.19.73.11,1.03-.08,2.29-1.48,3.94-3.4,4.22-6.23Z"/>
    <path class="cls-3" d="M64.78,84.91c1.74-.1,3.48-.2,5.22.15,1.37.27,2.3.86,2.16,2.43,0,.1.02.2.03.31.31,3.58.02,3.75-3.49,3.29-3.41-.45-6.86-.57-10.31-.46-.29,0-.68-.1-.81.26-.16.46.24.61.56.77,2.24,1.17,4.59,2.04,7.03,2.7.94.25,2.45.32,2.42,1.46-.03,1.05-1.48,1.27-2.46,1.49-7.45,1.65-13.04.03-16.98-6.52-.21-.35-.41-.71-.59-1.08-1.15-2.43-.71-3.21,1.89-3.29,5.14-.14,10.18-1.33,15.32-1.51Z"/>
    <path class="cls-3" d="M96.81,97.82c-.25-.06-.5-.12-.74-.18-.73-.59-1.67-.62-2.51-.92-.57-.2-1.04-.38-.83-1.12.28-.35.62-.63,1.06-.75.18.07.33.05.39-.17.26-.07.52-.13.78-.2.2.1.36.08.47-.14.28-.04.56-.08.83-.12,1.31.23,2.51-.06,3.58-.84.55-.23,1.1-.46,1.65-.68,0,0,.12.03.12.03,0,0,.04-.12.04-.12.16-.07.31-.14.47-.21,0,0,.11.04.11.04l.05-.11c.34-.2.69-.39,1.03-.59,0,0,.13,0,.13,0l.03-.12c.16-.13.32-.26.47-.4.3-.27.73-.54.58-.99-.16-.5-.71-.31-1.08-.32-4.33-.11-8.58.71-12.86,1.13-.31.03-.61.09-.92.09-1.81.04-2.03-.17-2.1-1.98-.12-3.45,1-4.78,4.46-4.64,4.56.19,9.1.68,13.65,1.03,2.05.16,4.09.36,6.14.45,1.17.05,1.47.57,1.35,1.67-.49,4.54-3.66,6.88-7.2,8.95,0,0-.11-.03-.11-.03l-.04.12c-.39.14-.78.27-1.17.41-.57.07-1.14.16-1.61.53-.18.03-.36.06-.54.09-.37-.09-.73-.11-1.01.22-.27.03-.55.07-.82.1-.75,0-1.5,0-2.25.01-.38-.03-.75-.07-1.12-.1-.11-.21-.28-.25-.49-.16Z"/>
    <path class="cls-3" d="M74.59,123.49c-1.38.59-2.66,1.33-3.62,2.53-1.42,1.79-1.31,3.3.33,4.87,1.76,1.68,4,2.68,5.88,4.18-.75,1.41-2.24,1.44-3.52,1.91-1.87.57-3.55.3-5.16-.91-5.93-4.42-5.8-11.56.37-15.92.83-.59,1.73-1.08,2.6-1.62.29-.12.33-.14.61-.24,1.55-.65,3.09-1.3,4.63-1.95.25-.09.27-.1.5-.16.25-.06.49-.13.74-.19.33-.04.74-.12,1.09-.13.99-.03,2.27-.07,3.01.03.35.02.45.03.83.09.33.06.66.12.98.18,1.54.87,3.22,1.48,4.66,2.54.1.12,1.91,1.61,2.01,1.72-.11.79-1.33,2.15-1.93,2.46-.98.51-2.44.1-3.31.84-.24.04-.89-.79-1.43-.84-.2-.1-.24-.39-.72-.48-.26-.15-.4-.3-.71-.3-2.14-.12-4.27-.16-6.29.77"/>
    <path class="cls-3" d="M76.85,63.6c1.64-.06,2.57-1.74,4.32-1.78.88-.02,1.26.14,1.57.83.25,9.72.1,19.43-.15,29.15-.03,1.12-.32,1.62-1.61,1.57-3.59-.14-3.64-.07-3.74-3.72-.21-8.17-.37-16.34-.54-24.52-.01-.51.1-1.02.16-1.53Z"/>
    <path class="cls-3" d="M7.89,59.56c.01.9-.12,1.3-1.16,1.19-1.11-.12-2.25-.02-3.38-.04-2.27-.05-3.2-.92-3.12-3.21.15-3.9-.11-7.79-.11-11.69,0-1.33-.09-2.66-.12-4-.05-1.95.9-2.94,2.85-2.99.72-.02,1.44-.02,2.15-.02q2.68-.01,2.67,2.6c0,2.77,0,5.54,0,8.31"/>
    <path class="cls-3" d="M158.63,57.87c.02,1.41-.6,2.2-1.94,2.54-1.52.38-3.07.18-4.6.25-.71.03-.66-.45-.66-.93,0-6.63,0-13.26-.02-19.9,0-.83.32-1.12,1.1-1.03.1.01.21.01.31,0,4.63-.08,5.98.15,5.71,5.64-.09,1.85-.01,3.7-.01,5.55"/>
    <path class="cls-3" d="M89.62,119.84c5.63,2.41,7.37,8.75,3.75,13.68-.39.54-.81,1.06-1.28,1.54-3.58,3.61-4.52,2.41-7.98.32-.89-.54-.65-1.15.11-1.66,1.02-.69,2.15-1.19,3.09-2.02,2.9-2.58,2.79-4.76-.39-6.96-.63-.44-1.32-.79-1.98-1.18-.16-.63.26-.9.71-1.19,1.33-.84,2.65-1.69,3.98-2.54Z"/>
    <path class="cls-1" d="M86.98,6.95c0,2.62-.22,2.8-2.83,2.28-.25-.05-.5-.12-.75-.15-1.48-.21-1.78.09-1.55,1.54.26,1.63.12,1.78-1.51,1.69-.31-.02-.63-.13-.92-.06-1.45.33-1.41-.37-1.08-1.43.55-1.76.16-2.27-1.61-1.82-3.99,1.02-3.77-.2-3.43-3.31.23-2.17.5-2.32,2.71-1.8.35.08.71.13,1.05.23,1.16.35,1.46-.15,1.37-1.25-.07-.77-.45-1.74.39-2.28.77-.49,1.72-.81,2.64-.42.9.38.69,1.29.71,2.03.08,2.35.06,2.35,2.35,2.19,2.41-.17,2.46-.11,2.46,2.55Z"/>
    <path class="cls-3" d="M77.78,165.3c-2.31-1.42-3.4-3.58-3.71-6.2,0,0,.07-.02.07-.02.59.13,1.17.26,1.76.4.07.23.2.28.41.15,1.89.42,3.72,1.25,5.73.94,0,0-.07,0-.07,0l.26-.08c.37-.26.75-.51,1.12-.77.31-.22.53-.13,1.02-.4.44-.24.3.74.27,1.12-.12,1.59-1.19,2.67-2.17,3.75-.83.92-1.3,1.77-.64,2.94-.13.2-.12.38.1.52.13,1.71.12,3.42,0,5.13-.3.3-.27.67-.19,1.05-.15.27-.31.54-.46.81-.76-.02-1.53-.04-2.29-.06-.18-.04-.35-.08-.53-.12,0,0-.05-.12-.05-.12l-.12.04c-1.37-.67-.9-1.96-1.03-3.05.13-.36.11-.71-.04-1.05-.01-.24-.02-.49-.03-.73.17-.81.08-1.61-.05-2.41.13-.29.26-.58.59-.71"/>
    <path class="cls-3" d="M82.53,108.41c-.05.88-.21,1.91-.13,2.92.13,1.62-.68,1.86-2.04,1.75-3.04-.23-3.03-.19-3.06-3.16-.01-1.74,0-3.48-.09-5.22-.04-.88.25-1.12,1.11-1.17,4.19-.24,4.19-.26,4.2,3.8,0,.31,0,.61,0,1.06Z"/>
    <path class="cls-3" d="M82.49,128.45c0,1.13,0,2.26,0,3.38,0,1.11-.58,1.6-1.66,1.45-.81-.12-1.6-.32-2.41-.44-.68-.1-.6-.67-.64-1.06-.19-2.25-.32-4.5-.47-6.74-.02-.31-.02-.67.34-.77,1.45-.39,2.93-.5,4.41-.22.49.09.46.61.46,1.02,0,1.13,0,2.25,0,3.38,0,0-.02,0-.03,0Z"/>
    <path class="cls-1" d="M98.42,98.08c.75,0,1.5,0,2.25-.01"/>
    <path class="cls-1" d="M90.4,118.1c.13,0,.26,0,.4,0"/>
    <polygon class="cls-1" points="102.28 92.32 102.24 92.43 102.13 92.4 102.17 92.28 102.28 92.32"/>
    <polygon class="cls-1" points="101.66 92.61 101.62 92.73 101.5 92.7 101.54 92.58 101.66 92.61"/>
    <line class="cls-1" x1="78.29" y1="174.4" x2="78.41" y2="174.36"/>
    <polygon class="cls-1" points="103.48 91.62 103.44 91.74 103.32 91.73 103.35 91.61 103.48 91.62"/>
    <path class="cls-2" d="M80,43.06c-3.4-.01-6.08-2.6-6.06-5.85.02-3.61,2.31-5.8,6.09-5.81,3.07-.01,5.94,2.75,5.87,5.78-.06,2.57-2.35,6.12-5.91,5.88Z"/>
    <path class="cls-2" d="M41.93,114.83c-.16,3.23.53,2.94-2.97,2.94-2.64,0-2.64-.01-2.7,2.7-.04,2.02-.39,2.34-2.36,2.21-3.12-.21-3.16-.21-3.18-3.41,0-1.15-.38-1.56-1.53-1.47-1.07.08-2.16,0-3.24-.02-.77,0-1.11-.4-1.08-1.17.03-.62.02-1.23.03-1.85q.01-2.83,2.9-2.58c.26.02.51.04.77.08,2.8.4,2.82.38,1.93-2.38-.24-.73.18-1.47-.08-2.24-.15-.45.44-.45.78-.45,1.23,0,2.47.02,3.7,0,.7-.01,1.08.24,1.04.97,0,.1,0,.21,0,.31q.14,3.33,3.58,3.33c.26,0,.52.03.77,0,1.28-.19,1.8.33,1.64,1.62-.06.51-.01,1.03-.01,1.41Z"/>
    <path class="cls-2" d="M135.72,115.63c.01.15.04.31.04.46-.02.7.44,1.74-.15,2.02-.81.39-1.81.7-2.81.45-4.12-1.04-3.4-.84-3.46,2.67-.03,2.06,0,2.06-2.05,1.93-3.29-.2-3.32-.2-3.24-3.49.02-.97-.19-1.5-1.26-1.36-.1.01-.21,0-.31,0-4.42-.01-4.4-.01-4.2-4.39.04-.85.34-1.25,1.16-1.25,1.23,0,2.46-.02,3.69.03.98.04,1.27-.36,1.14-1.3-.16-1.2-.83-2.71-.06-3.56.78-.86,2.34-.01,3.54-.23,1.3-.24,1.53.43,1.56,1.52.1,3.34.12,3.34,3.48,3.33q2.84,0,2.92,3.16Z"/>
    <path class="cls-2" d="M85.12,147.27c-.27,2.83-1.92,4.75-4.22,6.23-.3.19-.67.28-1.03.08-1.94-1.05-3.99-1.96-5.04-4.1-.96-1.96-.4-3.68.92-5.25,1.54-1.85,2.75-2.22,4.82-1.61,1.54.45,2.78,1.29,3.78,2.52.5.61.87,1.28.77,2.13ZM82.03,147.8c0-.46.01-.92,0-1.38-.07-1.91-.25-2.09-2.15-2.12-2.2-.03-2.22-.03-2.21,2.16,0,.77.06,1.54.16,2.3.19,1.39,1.75,2.84,3.03,2.6,1.47-.27.98-1.66,1.16-2.64.06-.3,0-.61,0-.92Z"/>
    <path class="cls-3" d="M82.03,147.8c0,.31.05.62,0,.92-.18.97.31,2.36-1.16,2.64-1.28.24-2.85-1.22-3.03-2.6-.1-.76-.16-1.53-.16-2.3,0-2.19,0-2.19,2.21-2.16,1.9.03,2.09.21,2.15,2.12.02.46,0,.92,0,1.38Z"/>
  </g>
</svg>